<svg xmlns="http://www.w3.org/2000/svg" viewBox="0 0 163.35 179.41"><defs><style>.cls-1,.cls-2{font-size:12px;fill:#fff;font-family:MyriadPro-Regular, Myriad Pro;}.cls-2{letter-spacing:0.36em;}.cls-3{font-size:17px;letter-spacing:0.36em;}</style></defs><g id="Layer_2" data-name="Layer 2"><g id="Layer_1-2" data-name="Layer 1"><text class="cls-1" transform="translate(70.75 143.82) rotate(-158.27)">M</text><text class="cls-1" transform="matrix(-0.81, -0.58, 0.58, -0.81, 58.58, 138.34)">A</text><text class="cls-1" transform="matrix(-0.68, -0.73, 0.73, -0.68, 49.73, 131.46)">R</text><text class="cls-1" transform="matrix(-0.52, -0.85, 0.85, -0.52, 42.97, 123.59)">K</text><text class="cls-1" transform="translate(37.95 114.39) rotate(-111.79)"> </text><text class="cls-1" transform="translate(35.71 108.27) rotate(-102.5)">F</text><text class="cls-1" transform="matrix(-0.02, -1, 1, -0.02, 34.01, 99.63)">A</text><text class="cls-1" transform="matrix(0.19, -0.98, 0.98, 0.19, 34.23, 88.42)">S</text><text class="cls-1" transform="matrix(0.42, -0.91, 0.91, 0.42, 36.44, 78.92)">H</text><text class="cls-1" transform="translate(41.89 68.59) rotate(-53.48)">I</text><text class="cls-1" transform="matrix(0.76, -0.66, 0.66, 0.76, 46, 63.23)">O</text><text class="cls-1" transform="matrix(0.9, -0.44, 0.44, 0.9, 55.4, 55.7)">N</text><text class="cls-1" transform="matrix(0.97, -0.25, 0.25, 0.97, 66.28, 51.17)"> </text><text class="cls-1" transform="translate(72.58 49.73) rotate(-3.22)">A</text><text class="cls-1" transform="matrix(0.98, 0.18, -0.18, 0.98, 83.76, 49.54)">N</text><text class="cls-1" transform="translate(95.21 52.1) rotate(23.96)">D</text><text class="cls-1" transform="translate(105.83 57.48) rotate(34.33)"> </text><text class="cls-1" transform="translate(111.12 61.26) rotate(44.15)">A</text><text class="cls-1" transform="translate(118.76 69.24) rotate(55.95)">C</text><text class="cls-1" transform="matrix(0.38, 0.93, -0.93, 0.38, 124.39, 78.22)">C</text><text class="cls-1" transform="translate(128.07 88.43) rotate(79.56)">E</text><text class="cls-1" transform="matrix(-0.02, 1, -1, -0.02, 129.47, 98.14)">S</text><text class="cls-1" transform="translate(128.9 107.92) rotate(102.85)">S</text><text class="cls-1" transform="translate(126.43 117.35) rotate(116.59)">O</text><text class="cls-1" transform="matrix(-0.66, 0.75, -0.75, -0.66, 120.5, 127.86)">R</text><text class="cls-1" transform="translate(113.3 135.29) rotate(142.12)">I</text><text class="cls-1" transform="translate(107.8 139.28) rotate(152.91)">E</text><text class="cls-1" transform="matrix(-0.97, 0.25, -0.25, -0.97, 98.91, 143.34)">S</text><text class="cls-1" transform="translate(89.28 145.32) rotate(175.6)">.</text><text class="cls-2" transform="translate(55.93 91.8)"> <tspan class="cls-3" x="6.84" y="0">MF</tspan></text><text y="15.64"/></g></g></svg>